<?xml version="1.0" standalone="no"?><!DOCTYPE svg PUBLIC "-//W3C//DTD SVG 1.1//EN" "http://www.w3.org/Graphics/SVG/1.1/DTD/svg11.dtd"><svg t="1721444935415" class="icon" viewBox="0 0 1024 1024" version="1.1" xmlns="http://www.w3.org/2000/svg" p-id="20085" xmlns:xlink="http://www.w3.org/1999/xlink" width="200" height="200"><path d="M310.376445 420.277996c-34.691103-26.594705-69.416999-53.151547-103.527888-80.490196-32.159444-25.775037-66.302055-51.341319-94.04184-81.98013-24.52865-27.091008-43.431162-59.138912-54.29151-94.084818C45.639968 122.293277 45.567313 78.731132 45.598013 35.771715 57.00583 48.201815 67.988975 61.443397 80.440565 72.842005c15.94618 14.59644 14.034645 31.864732 18.318205 52.108798 8.851599 41.837874 29.903054 77.54819 59.42953 108.144023 30.673603 31.785937 66.393129 58.97109 100.652398 86.71906a7353.611371 7353.611371 0 0 0 25.15082 20.273743c6.658653 5.345752 18.455327 11.465123 21.699208 19.881816 2.332115 6.052856 1.499144 14.289448 1.937118 20.60427l2.748601 39.704281c-58.882062-45.140083-1.069355-15.440667 0 0z" fill="#FFFFFF" p-id="20086"></path><path d="M311.55427 422.469917c-31.726585-24.318872-63.482847-48.603975-94.785783-73.467245-34.633798-27.509541-71.344908-54.825676-101.672634-87.159082-26.205848-27.939329-46.266743-61.33288-57.609069-97.977475-13.112646-42.36283-12.948917-86.820368-12.910031-130.720204 12.972453 14.140045 25.659403 28.586059 39.60502 41.767266 16.189727 15.303544 13.346983 43.487444 19.057031 64.193021 12.728906 46.161343 42.60126 82.922594 77.670987 114.3954 19.238157 17.265222 39.389102 33.55114 59.393715 49.910736 20.451798 16.726963 45.162596 32.141024 63.217811 51.403741 6.897084 7.358595 4.997827 23.826662 5.679349 33.670867l2.353604 33.982975zM46.619272 38.396495c-0.057305 80.747046 10.19827 155.766646 66.199725 217.943754 27.934213 31.016411 62.463634 56.83238 94.942349 82.857103 33.428344 26.786063 67.443042 52.828182 101.437273 78.887698l-1.977027-28.549219c-0.647753-9.359158 1.274016-26.570145-5.336542-33.480532-16.740266-17.500583-39.044248-31.616068-57.82294-46.931893-20.447704-16.676821-40.9916-33.317827-60.782342-50.77543-33.909297-29.912263-64.261583-64.533782-78.794577-108.10616-3.517103-10.546194-6.127558-21.369703-8.15268-32.29452-1.727341-9.31618-0.811482-23.956621-5.393847-32.163537-3.926426-7.033184-11.251252-11.558244-16.618493-17.35732-9.250688-9.992585-18.489096-19.999496-27.700899-30.029944-0.029676 41.340547 4.374634 4.76349 0 0z" fill="" p-id="20087"></path><path d="M306.04786 357.744777c-47.854914-38.150902-98.03478-75.322499-141.870148-118.136607-43.270503-42.261523-64.210417-93.344968-71.394027-152.783709 41.732473 45.106314 82.587973 90.02127 128.694057 130.801045 22.476921 19.87977 45.240367 39.442314 67.967998 59.032488 11.819187 10.188037 11.998265 14.176884 13.035897 29.183669 1.198292 17.301038 2.412956 34.600029 3.566223 51.903114-40.599673-32.367175-1.297552-19.466354 0 0z" fill="#00A5C7" p-id="20088"></path><path d="M307.223638 359.990934c-47.362704-37.754882-96.606245-74.631768-140.478451-116.479874-46.109154-43.982724-67.989487-97.108688-75.356269-159.700236 42.060955 45.419446 83.140559 90.855264 129.554658 131.971707 24.436552 21.647019 49.207725 42.929742 73.954339 64.220651 11.090593 9.54233 8.467859 23.796986 9.422604 37.538964 0.981351 14.148231 1.959631 28.296463 2.903119 42.448788zM94.188684 89.854471c7.274684 57.703213 28.433586 107.518782 70.273507 148.600433 43.282782 42.496883 93.047186 79.278601 140.40989 117.044739-0.980327-14.635325-2.001587-29.268604-3.016707-43.901882-0.830925-11.970636 1.279133-21.807678-8.292873-30.042224-23.14821-19.916609-46.298466-39.845497-69.212338-60.032258-46.611597-41.064254-88.112804-86.070284-130.161479-131.668808 3.63376 28.821419 7.05365 7.649214 0 0z" fill="" p-id="20089"></path><path d="M980.501812 126.708843c-9.783831 67.448158-44.464701 121.452119-95.212502 165.620062-53.538357 46.598294-110.314455 89.766466-166.620855 132.933615l5.608741-81.340563c0.798179-11.5695 2.433422-23.426549 2.300392-35.021631-0.049119-4.311189-1.842974-14.495132 1.945305-17.733897l-5.436825 70.637804c56.378032-45.287439 120.694873-86.507236 166.024267-143.706983 21.167089-26.709315 37.202297-57.751309 43.175335-91.501994 2.258437-12.765745 0.985444-29.755698 9.481956-40.45641 12.673647-15.96153 27.891234-30.374798 41.679261-45.3867 0.021489 29.845749 0.710175 59.515488-3.412726 89.157599 0.476861-3.429099 0.933255-6.867408 1.484817-10.286274-0.3776 2.354628-0.677429 4.726651-1.017166 7.085372-5.952572 41.035602 3.069919-21.305235 0 0z" fill="#FFFFFF" p-id="20090"></path><path d="M717.490629 427.454442l4.839215-70.168106 2.66469-38.632879c0.613984-8.909927-2.842745-24.582885 4.737907-29.866215l-5.443989 70.742181c60.375066-48.343031 132.085294-92.937692 175.806052-158.216441 19.355837-28.900214 29.411867-59.735499 34.003442-93.997838 3.844561-28.692482 31.528064-48.660256 50.373271-69.186755-0.005117 78.534658-4.800329 152.553465-58.715264 215.617779-28.886911 33.789571-65.219397 61.025888-99.719142 88.766696-35.80753 28.79072-72.079642 56.995085-108.546182 84.941578z m6.540974-65.096601l-4.186346 60.712757c63.58927-48.77589 131.7343-96.617501 188.44286-153.487743 28.656667-28.738531 49.466622-62.61713 61.659315-101.386108 12.866029-40.907689 12.599969-82.375126 12.482289-124.82289-18.155499 19.754926-42.649356 37.467333-46.4141 65.033155-4.847401 36.239366-16.296151 68.698638-37.456076 98.754165-44.654013 63.425541-114.863051 107.295702-174.527942 155.196664z" fill="" p-id="20091"></path><path d="M937.213913 90.852194c-6.921643 59.135842-27.693736 108.624976-69.89386 151.276379-43.899836 44.36851-95.696526 80.685647-144.232962 119.673613l3.5038-45.528939c1.032516-13.407358-0.655939-22.867824 9.988492-32.032554 24.107047-20.756743 48.204885-41.540092 72.0295-62.622246 46.081525-40.778752 86.754876-85.803201 128.60503-130.766253-0.089028 0.762363-4.378727 8.613168-5.107321 7.057743-0.656963-1.402953 5.078669-7.02602 5.107321-7.057743-3.791349 32.392758-11.143805 11.972683 0 0z" fill="#00A5C7" p-id="20092"></path><path d="M721.884706 364.080066l3.696182-48.02376c0.421602-5.481851 0.989537-10.978029 1.162476-16.476253 0.518816-16.371876 25.38618-30.102598 36.814464-40.035832 29.518291-25.651216 59.369156-51.02 87.443561-78.266551 29.903054-29.01994 57.093323-60.643172 85.463464-91.122347 0.410346 0.656963 0.99977 0.929162 1.766226 0.815575-7.166213 61.22748-29.383214 111.653963-73.461105 155.139359-43.945885 43.355437-94.866624 79.377862-142.885268 117.969809zM931.388231 98.653881c-51.939953 56.406684-105.026008 109.070114-162.961512 159.3738-10.780531 9.360182-31.818683 21.388123-38.361703 34.088376-2.52552 4.90266-1.641383 13.694907-2.079358 19.383466l-3.696182 48.027853c47.046502-37.699624 96.868211-73.03848 139.76623-115.587551 41.555441-41.216727 64.065108-89.107457 71.394027-147.040914-1.202385 2.119267-2.555196 2.704598-4.061502 1.75497-6.402827 6.953366 0.229221 0.249687 0 0z" fill="" p-id="20093"></path><path d="M920.22089 885.047298l13.724583 27.845185c10.750855-17.064654 21.481244-34.141588 32.234145-51.205219-8.446369-0.753153-21.156856-6.711865-29.287023-2.614547-8.639774 4.355191-11.782348 18.359137-16.671705 25.974581 4.575202 9.281387 3.88754-6.055926 0 0z" fill="#FFFFFF" p-id="20094"></path><path d="M933.837003 914.985144c-3.748371-7.605212-15.042601-22.446221-14.476713-30.490431 4.892427-7.619538 9.126868-25.269523 19.514449-27.098172 9.556657-1.681292 19.578917 2.583848 29.062919 3.420913-11.375072 18.050098-22.728654 36.114522-34.100655 54.16769z m-12.44545-29.879518l12.663414 25.692149c10.136871-16.093537 20.258393-32.196283 30.39731-48.287773-7.613398-1.092891-19.765159-6.215562-27.098171-2.524496-8.142447 4.105504-11.505032 17.831111-15.962553 25.12012z" fill="" p-id="20095"></path><path d="M942.98536 902.423037c0 29.079292 39.425941 38.779212 55.010895 15.141862 9.120728-13.834076 3.323699-33.9533-11.238972-41.397852-18.6078-9.510608-43.771923 4.281513-43.771923 26.25599z" fill="#FFFFFF" p-id="20096"></path><path d="M971.424062 931.832857c-33.991162 0-39.231513-48.913013-7.91118-58.666144 43.527352-13.553691 55.302537 58.666144 7.91118 58.666144z m1.318019-58.005088c-32.224935 0-39.596833 51.77827-5.03569 55.747675 39.9642 4.589528 44.756343-55.747675 5.03569-55.747675z" fill="" p-id="20097"></path><path d="M811.401486 748.538251c-10.680247 11.097756-31.199583 28.863375-34.753525 44.208874-1.075495 4.640694 42.609447 28.529777 48.015573 31.993669l65.921385 42.246173c7.970532 5.108345 16.527418 9.813506 24.001647 15.626909 6.497994 5.055133 8.244778 0.638543 11.791558-5.443989 9.280364-15.911388 9.79304-20.022009-5.580089-31.5516-38.566364-28.922726-73.360821-65.032132-109.396549-97.080036-3.394307 3.527336 4.061502 3.613294 0 0z" fill="#940005" p-id="20098"></path><path d="M919.547555 886.647749c-9.911744-3.694135-20.438495-12.981662-29.276791-18.646686l-58.916854-37.756929-49.012274-31.40936c-1.784646-1.144056-7.370875-3.345188-6.682189-6.213515 2.451842-10.225899 13.897521-20.605294 20.466124-28.311813 2.118244-2.485611 11.661597-17.057491 15.22168-17.188474 1.798972-0.065492 7.440459 6.617721 8.705265 7.741311l48.996924 43.575448 45.243437 40.2364c5.556553 4.941546 12.017708 8.950859 17.304108 14.124695 7.436366 7.27673 1.842974 13.732769-2.235924 21.152763-1.493004 2.711761-5.586229 12.69616-9.813506 12.69616z m-141.968386-93.29585l86.169545 55.222719 44.587498 28.573779c3.062755 1.962701 5.886057 4.03285 8.856715 6.134721 5.097088 3.605108 19.177781-20.827351 15.261589-26.439162-7.076162-10.138918-24.257473-20.850887-33.786501-29.324886l-50.296523-44.73076-35.68064-31.733749c-1.551332-1.38044-36.093033 34.493605-35.111683 42.297338z" fill="" p-id="20099"></path><path d="M890.43347 729.308281c-20.88261-11.243065-33.561373-11.872399-54.632271 0.181125-18.823718 10.769274-33.755802 27.851325-46.508244 45.106314-23.227004 31.428803-34.601052 73.100902-4.001127 103.98019-25.829272 11.494799-42.99421-10.973936-47.648206-34.181497-6.242168-31.115672 6.604418-64.541969 23.752983-90.104158 15.620769-23.282263 38.97057-47.038316 66.64077-54.90754 24.818245-7.057743 56.655348 1.728364 62.396095 29.925566-1.904373-1.025353-6.444782-13.417591-4.058432-14.048971 1.382487-0.366344 4.004197 13.783934 4.058432 14.048971-7.830339-4.216022-6.127558-30.093389 0 0z" fill="#FFFFFF" p-id="20100"></path><path d="M770.933819 882.953613c-29.966499 0.00307-37.640272-41.013089-35.416628-63.735603 3.039219-31.051203 18.781762-60.794621 39.371706-83.809801 17.990746-20.10899 42.068118-39.405475 70.365604-39.405475 23.154349 0 41.806151 11.608386 46.182832 33.102932-0.841158-0.096191-1.337461 0.272199-1.486863 1.105171-9.749038-5.250584-18.294668-11.695367-29.984919-9.552563-10.112312 1.854231-19.868513 7.045463-28.396747 12.628621-17.968234 11.762905-32.890085 29.185716-44.928258 46.820352-21.139459 30.964222-29.017894 70.046333 0.422625 98.803284-4.998851 2.409886-10.54517 4.042059-16.129352 4.043082-21.463848 0.002047 4.672416-0.001023 0 0z m74.319659-184.90529c-40.850383 0-75.658144 39.97034-92.822059 73.579809-11.384281 22.292726-18.946514 48.558949-13.571086 73.595159 4.609994 21.472034 20.414959 42.859134 44.657082 32.996508-29.335119-30.670533-18.662035-71.389934 3.694136-102.500489 21.575388-30.023804 60.414975-72.514547 99.770307-49.546439-7.592932-18.819624-19.992333-28.124548-41.72838-28.124548z" fill="" p-id="20101"></path><path d="M702.068382 725.627449c0.669242 15.815197 2.484587 20.261463 16.095583 29.091572 8.859785 5.746888 17.721617 11.490705 26.578332 17.246802 7.645121 4.967128 7.774057-0.001023 12.580526-6.577812 10.642384-14.561647 10.933003-18.666128-3.868097-29.200042l-51.506071-36.653805c0.124843 9.057283-0.452301 18.200524 0.171915 27.243481-0.093121-1.347694-0.077771-2.707668-0.147356-4.056386 0.022513 0.968048 0.054235 1.936095 0.095168 2.90619 0.25071 5.922896-0.302899-8.68787 0 0z" fill="#FFFFFF" p-id="20102"></path><path d="M750.384807 776.853134c-12.641925-8.225335-25.299199-16.424064-37.951357-24.633027-10.520611-6.827499-11.387351-14.478759-11.387351-26.54968-0.337691-9.259898-0.008186-18.787902-0.149403-28.14092l43.973514 31.293727c6.427386 4.575202 12.855796 9.148357 19.284205 13.722536 10.724249 7.632841-9.649777 27.605731-13.769608 34.307364z m-47.25628-50.147121c0.297782 11.121292 0.684592 17.480116 10.420327 23.796986 12.065803 7.829316 24.13877 15.650445 36.196387 23.493064 5.939269-8.999978 22.474874-23.198352 10.073426-32.024368l-56.825217-40.441061c0.056282 8.387018-0.170892 16.814967 0.135077 25.175379z" fill="" p-id="20103"></path><path d="M701.948655 699.533141l65.694211 46.75179c4.920056-8.200776 12.786211-13.896498 19.25146-20.751627-26.713408-21.4925-53.426817-42.98807-80.127946-64.496943-2.442632 12.697183-4.997827 25.501814-4.817725 38.49678 21.897729 15.582907-0.180102-13.007245 0 0z" fill="#129BBB" p-id="20104"></path><path d="M767.950881 747.759515l-44.494377-31.664164-21.204951-15.090696c-6.563486-4.670369 2.428306-34.565237 3.831259-41.833781 27.420513 22.10853 54.874795 44.176129 82.31475 66.259076-6.92676 7.340175-15.280008 13.489222-20.446681 22.329565z m-64.98506-48.758494l39.042202 27.783787 21.772886 15.494902c6.670933 4.748141 16.21531-11.100826 21.601993-16.650215-25.982768-20.904099-51.963489-41.810245-77.933976-62.730716-2.291183 11.905144-4.582365 23.927969-4.483105 36.102242z" fill="" p-id="20105"></path><path d="M107.886661 877.258914l-13.727653 27.850302c-10.747785-17.066701-21.479197-34.143635-32.234145-51.205219 8.446369-0.753153 21.155832-6.710842 29.287023-2.613524 8.639774 4.354168 11.785417 18.355043 16.674775 25.968441-4.576225 9.284457-3.888564-6.055926 0 0z" fill="#FFFFFF" p-id="20106"></path><path d="M94.267479 907.2029c-11.369955-18.055215-22.723537-36.119639-34.101679-54.169736 9.485025-0.836041 19.507286-5.100158 29.062919-3.41989 10.386558 1.827625 14.628162 19.472494 19.518542 27.093055 0.567935 8.045233-10.730389 22.890336-14.479782 30.496571z m-30.614252-52.475141c10.141988 16.090467 20.261463 32.194236 30.397311 48.287772 3.339048-6.774287 12.382005-18.291598 12.666484-25.697265-4.600785-7.523347-7.350408-16.568351-13.46671-23.102161-6.468318-6.910387-21.612227-0.635473-29.597085 0.511654 6.013971 9.540284 1.787716-0.25685 0 0z" fill="" p-id="20107"></path><path d="M85.124238 894.640794c0 29.080316-39.429011 38.777165-55.012941 15.140838-9.121751-13.834076-3.324722-33.957393 11.238972-41.400922 18.608823-9.512654 43.773969 4.28356 43.773969 26.260084z" fill="#FFFFFF" p-id="20108"></path><path d="M56.688605 924.04959c-43.850717 0-38.889729-66.061578 3.371794-59.70787 34.341133 5.163603 33.594119 59.70787-3.371794 59.70787z m-1.327228-58.009181c-39.633672 0-35.043121 60.349483 5.04183 55.750745 34.56626-3.964288 27.185152-55.750745-5.04183-55.750745z" fill="" p-id="20109"></path><path d="M216.702995 740.748844c10.682293 11.094686 31.198559 28.865421 34.755572 44.208875 1.075495 4.638647-42.609447 28.529777-48.01455 31.993668l-65.922409 42.246173c-7.970532 5.108345-16.528442 9.813506-24.001647 15.626909-6.497994 5.055133-8.243755 0.638543-11.791557-5.443989-9.279341-15.910365-9.790994-20.022009 5.582135-31.550577 38.563294-28.922726 73.357751-65.032132 109.392456-97.081059 3.394307 3.52529-4.061502 3.612271 0 0z" fill="#940005" p-id="20110"></path><path d="M108.55795 878.858342c-6.705726 0-18.494213-24.662703-14.992459-30.30112 4.387937-7.067976 12.968359-11.193947 19.174711-16.71366l43.76476-38.923498 50.019207-44.48619 10.154267-9.030677c0.326435-0.290619 12.3247 13.643742 13.05841 14.495132 5.951549 6.898107 30.240745 28.039613 18.320251 35.678594l-45.710064 29.293163-60.018955 38.464033c-6.167466 3.949962-25.647123 21.524223-33.770128 21.524223z m108.085694-136.687102l-76.244499 67.811432c-9.974166 8.870018-19.698644 18.174941-29.993104 26.674522-4.51892 4.018523-15.059997 8.543583-16.068978 15.388479-0.582261 3.952009 4.960988 10.910491 6.759961 14.131859 5.684466 10.17371 6.091742 11.243065 15.138792 5.445012 31.904641-20.444635 63.808258-40.891316 95.712899-61.336974l37.335326-23.925922c5.092995-3.263323-28.268834-39.544645-32.640397-44.188408z" fill="" p-id="20111"></path><path d="M140.285558 721.519898c20.881586-11.241019 33.564443-11.875468 54.632272 0.183171 18.821671 10.772344 33.751708 27.855418 46.506197 45.109384 23.233144 31.428803 34.592866 73.090669 4.004197 103.975073 24.561395 10.937097 43.51098-10.019191 47.900963-32.81129 5.671163-29.441543-9.815553-66.727751-24.578792-91.608417-13.416568-22.611997-42.823318-50.632167-69.249177-55.68423-24.420179-4.668323-53.639664 3.458775-59.21566 30.836309 1.905396-1.025353 6.444782-13.415544 4.058433-14.046925-1.382487-0.36532-4.004197 13.780865-4.058433 14.046925 7.829316-4.214998 6.127558-30.087249 0 0z" fill="#FFFFFF" p-id="20112"></path><path d="M259.330862 874.996384c-5.429663 0-10.809183-1.526773-15.671935-3.876283 29.427216-28.764114 21.565155-67.834968 0.418532-98.801237-11.056823-16.192797-24.524556-31.994692-40.368406-43.650149-8.314363-6.117324-17.85567-11.500938-27.765367-14.521739-14.060227-4.285606-23.169699 1.812275-35.17308 8.274454-0.150426-0.832971-0.64673-1.202385-1.487888-1.10517 3.686972-18.104333 16.255219-29.048593 36.051078-32.188097 30.766724-4.878101 52.16815 12.620435 73.247234 32.124652 23.282263 21.541619 36.434817 51.609425 43.612287 82.205256 5.845125 24.916483 2.605338 71.538313-32.862455 71.538313z m-12.127202-4.567015c28.191062 11.373025 46.24423-19.426445 46.205345-43.766806-0.042979-26.609031-12.20088-57.390082-25.607215-79.887469-11.803837-19.809161-37.455053-44.311205-59.124585-52.522213-13.273305-5.030573-29.570479-5.477758-42.942021-0.551562-13.541411 4.987594-17.098423 12.602016-22.01848 24.695448 39.317471-23.066345 78.240969 19.562545 99.787704 49.53723 22.36231 31.110555 33.025161 71.820746 3.699252 102.495372 4.14746 1.673106 36.760229-38.45073 0 0z" fill="" p-id="20113"></path><path d="M326.032006 717.844182c-0.670266 15.816221-2.479471 20.259416-16.093536 29.091572-8.859785 5.747911-17.72264 11.492752-26.579355 17.246802-7.646144 4.967128-7.774057-0.001023-12.579504-6.578835-10.641361-14.562671-10.933003-18.666128 3.868098-29.200043l51.503001-36.652781c-0.12382 9.061376 0.420579 18.192338-0.170892 27.242458 0.088004-1.349741 0.083911-2.707668 0.150426-4.059456-0.024559 0.970094-0.057305 1.940189-0.098238 2.910283-0.25071 5.921873 0.312108-8.694009 0 0z" fill="#FFFFFF" p-id="20114"></path><path d="M277.715581 769.07089c-3.78828-6.163373-24.318872-26.798343-14.21577-33.989115l17.21815-12.254092 46.482661-33.081443c-0.170892 11.452843 0.155543 22.864754-0.324388 34.259268-0.967024 23.013133-31.954783 33.876552-49.160653 45.065382z m47.391356-75.322499l-60.409858 42.993186c-6.823406 4.855588 6.816243 20.168342 9.708106 24.02416 5.389754 7.187703 6.039553 4.088108 13.409405-0.696872 6.229888-4.045129 12.462846-8.086166 18.694781-12.129248 12.798491-8.30106 18.072611-11.729136 18.427698-27.592428 0.204661-8.837272 0.110517-17.736966 0.169868-26.598798z" fill="" p-id="20115"></path><path d="M326.151733 691.749874l-65.690118 46.750767c-4.920056-8.199753-12.785188-13.898545-19.252483-20.750604 26.716478-21.491477 53.428863-42.98807 80.129992-64.497966 2.438539 12.697183 5.001921 25.502837 4.812609 38.497803-21.896706 15.58393 0.189312-13.007245 0 0z" fill="#129BBB" p-id="20116"></path><path d="M260.152577 739.975225c-5.16565-8.841366-13.517875-14.990413-20.448728-22.328541 27.444049-22.079878 54.892191-44.156686 82.31782-66.2601 1.207501 6.257517 9.977235 37.459147 4.548596 41.323151l-19.307741 13.739932-47.109947 33.525558z m-17.433045-22.127973c5.390777 5.54939 14.931061 21.397333 21.603017 16.649191l27.244505-19.387559 28.541033-20.312628c11.151991-7.936763 2.807952-27.931143 0.547469-39.679721-25.971511 20.920472-51.952232 41.827641-77.936024 62.730717 1.816369 1.86958 25.983791-20.903076 0 0z" fill="" p-id="20117"></path><path d="M376.230292 646.876873c-1.691525 0.277316-1.27197 0 0 0-0.37146 0.060375-0.372483 0 0 0z" fill="#FFFFFF" p-id="20118"></path><path d="M374.605282 648.024c0.74599-0.905626-3.292999-2.170432 1.62501-2.170433-0.340761 0.943488-0.093121 1.27504 0.74292 0.995677-0.511653 0.974188-1.279133 0.444115-2.36793 1.174756z" fill="" p-id="20119"></path><path d="M639.257847 645.185348c-16.184611-0.030699-33.692357 0.38681-49.334615-1.685385 16.436344 0.820692 32.895201 0.99056 49.334615 1.685385-2.931772-0.00614-9.584286 1.026376-12.490475-0.287549 2.558265 1.156336 9.950629 0.180102 12.490475 0.287549-16.184611-0.030699-17.436114-0.73678 0 0z" fill="#FFFFFF" p-id="20120"></path><path d="M626.139062 646.224004c-12.123109 0-24.312732-0.11461-36.349883-1.709945l0.186242-2.036379c16.422018 0.821715 32.866548 0.99056 49.292659 1.684362l-0.011256 2.047636c-4.372587 0-8.746198 0.014326-13.117762 0.014326z" fill="" p-id="20121"></path><path d="M655.896806 646.079718c0.080841 1.065262-0.798179 1.01205-2.638083-0.156566l2.638083 0.156566z" fill="#FFFFFF" p-id="20122"></path><path d="M655.357524 647.864364c-1.693572 0-4.626367-2.190899-5.981225-3.195785 3.237741-0.37146 10.525728 3.195785 5.981225 3.195785z" fill="" p-id="20123"></path><path d="M587.354733 745.755882c-1.180895-0.446162-2.043542 0.893346-2.046612-0.857531 1.630127-0.471744 1.655709 0.709151 2.046612 0.857531zM667.265738 649.670499c-0.928139-0.118704-1.575892 0.220011-2.046613-0.341784 0.615007-0.125867 2.031263 0.339738 2.046613 0.341784zM728.65797 603.912339c-1.070378-0.532119-2.010797 0.591471-2.010797-0.968047 1.153266-0.333598 2.155083-0.349971 2.010797 0.968047z" fill="" p-id="20124"></path><path d="M329.431429 402.105101c0 10.428513-4.910846 23.003923-8.962115 32.42755-7.937786 18.463514-13.122879-10.070356-12.706393-17.892509 1.210571-22.734794 2.089591-43.262316-0.848321-66.124-3.484358-27.119661-7.612375-55.095829-0.418532-82.000596 18.270109-68.332295 99.639325-91.38022 161.702845-96.336092 76.483952-6.106068 188.011025-4.431939 238.674915 63.547315 27.548426 36.962843 22.249747 80.857563 17.003255 123.852796-3.087315 25.305339-4.855588 50.14405-4.27742 75.638701 0.207731 9.135054-6.097882 16.198937-11.325953 5.101181-4.79112-10.16757-8.326643-22.107507-8.326642-33.423227" fill="#FFFFFF" p-id="20125"></path><path d="M713.955106 447.485661c-10.80816 0-15.031345-32.903388-15.031344-40.588417h2.046612c0 5.253654 8.149611 46.657646 16.528442 36.748972 3.475148-4.109598 0.87288-13.770632 0.788969-18.922978-0.370437-13.542434 0.456395-27.086915 1.772366-40.560788 4.134157-42.304502 15.913435-87.63492-2.468214-128.21208-35.621289-78.634942-139.809209-82.783425-213.682707-83.73203-69.947072-0.89744-174.857447 16.257266-196.379623 96.385211-12.105712 45.067428 8.05649 90.387613 2.490727 135.698588-0.988514 8.045233-2.225691 16.451694-0.657986 24.511254 0.586354 3.012613 4.195555 16.223496 8.191566 9.431813 5.605671-9.524934 10.852162-24.984021 10.852163-36.139082h2.046612c0 9.726525-4.498454 21.103644-7.957229 30.019711-7.899924 20.361747-16.052604 0.523933-15.847943-12.683881 0.321318-20.822235 2.76088-39.814798 0.245593-60.82225-2.686179-22.432918-6.591115-44.951795-5.041829-67.62826 5.859451-85.767386 99.045807-115.66123 172.026982-120.250758 73.223698-4.604878 172.96126-2.742461 226.501663 55.565526 25.683962 27.971052 31.457456 63.756069 28.193109 100.405781-2.112104 23.701818-5.980201 47.221488-7.589862 70.971402-0.481977 7.118118 3.809769 49.802266-7.028067 49.802266z" fill="" p-id="20126"></path><path d="M699.946045 406.895197c0 21.379936 13.252839 47.888683 22.764469 66.722634 11.269671 22.316262 34.602076 38.152948 40.74089 63.061245 5.036713 20.444635-3.382027 42.312688-17.978467 56.827263-18.306948 18.204617-43.262316 12.32777-64.334237 23.964808-8.643867 4.7727-13.580297 12.408611-15.192004 22.070668-1.905396 11.428284 5.89015 11.644201 10.860349 20.675901 13.681604 24.858154 5.658883 44.13315 2.861164 70.177316-2.677992 24.927739 6.753821 50.048883 2.136663 74.686003-1.832741 9.776667-11.511171 18.21178-20.146852 8.852622-5.745864-6.227842-5.733585-16.863063-3.829212-24.590048-13.601786-0.157589-8.043187-16.609283-8.043187-27.146267 0-3.77293 2.333138-15.687284-2.940982-17.289781-6.835685-2.075265-17.879206 0.350994-24.935925 0.350994h-238.061954c-9.278317 0-5.535063 9.295714-5.53711 17.503652-0.002047 9.289574 0.00921 18.580171 0.00921 27.869745a905.551284 905.551284 0 0 1-9.125845-0.39909c2.221598 7.424086 2.300392 17.192567-2.609431 23.633257-7.776104 10.200316-19.895119 3.708462-21.578457-7.271614-4.101411-26.758434 11.354606-52.280714 7.309476-79.006402-2.000564-13.216-9.723455-26.774807-8.306177-40.333614 0.995677-9.524934 7.094582-20.485567 10.632152-29.351491 4.136204-10.368138 12.186554-8.532327 8.645914-21.766746-3.007497-11.243065-11.17962-18.794042-21.738094-23.064299-21.969361-8.886391-49.508577-6.03853-65.907059-25.912159-13.43294-16.279778-16.179494-40.936341-7.153933-59.921741 9.253758-19.4684 28.281113-31.905664 38.390355-50.811246 5.823636-10.891048 4.042059-22.649859 9.90765-33.525558 6.729262-12.477172 12.648065-26.376741 12.648065-40.800241" fill="#FFFFFF" p-id="20127"></path><path d="M356.783381 820.22085c-22.292726 0-11.55722-42.35976-9.122775-53.767577 2.696412-12.634762 5.602601-25.740244 3.6399-38.71065-1.840928-12.157901-7.644097-23.691585-8.396227-36.019355-0.947582-15.518438 10.67513-33.371038 19.701714-44.306089 4.423753-5.359055-2.802836-18.627243-6.232958-22.871917-7.933693-9.816576-21.24179-13.109576-33.017998-15.601326-20.645203-4.369517-41.636283-8.045233-53.131081-27.756157-9.705036-16.642029-10.743692-38.500872-1.995447-55.732326 10.80509-21.281699 33.55421-34.638915 41.312918-57.70833 3.374864-10.031471 2.979868-18.683525 8.058536-28.575825 5.859451-11.413957 10.809183-24.050766 10.809184-37.069267h2.046612c0 11.523451-3.802606 22.784936-8.633634 33.112142-2.142803 4.581342-4.541433 9.036817-7.06593 13.416567-3.409656 5.979178-1.137916 13.416568-3.27458 19.767206-8.369621 24.885783-34.005488 38.498826-43.547818 62.689785-7.002484 17.752316-3.8814 40.101323 8.123004 55.006801 17.398252 21.601994 48.15986 16.623609 70.91205 28.330232 8.567119 4.408403 14.781658 12.022825 17.281595 21.339004 3.025916 11.273764-0.780783 11.237949-6.583952 18.7439-5.149277 6.65149-9.383718 20.550035-11.816117 28.719088-3.175319 10.665921 2.110057 22.500457 4.910847 32.69975 8.094352 29.472242-6.9022 55.649438-5.322216 84.887342 0.561795 10.392698 10.707876 26.13831 20.608364 12.023848 4.681626-6.674003 4.187369-16.310477 1.74883-23.696702 3.165086 0.156566 6.331195 0.300852 9.497305 0.426719-0.00307-7.437389-3.834328-45.333488 3.15997-45.333488H627.260605c8.735965 0 23.547299-4.106528 23.547299 7.618515v24.808012c0 6.741541-1.76111 14.154371 8.32255 11.672854-1.63422 6.056949-1.983167 12.846586-0.051166 18.883069 3.462868 10.822486 16.662495 13.368472 20.701485 1.600451 7.739265-22.542412-3.019777-49.422619-1.617847-72.755024 1.468444-24.419156 10.723226-43.131333 1.407046-67.318198-1.585101-4.115738-3.456728-8.232498-6.03546-11.834537-2.287089-3.193739-8.176217-5.191232-9.012258-9.117658-2.089591-9.826809 3.852748-22.645766 11.662621-28.375257 19.431561-14.252609 46.437635-7.313569 65.101717-23.443945 16.288988-14.0766 26.38288-36.978193 21.314444-58.477856-5.548366-23.533996-26.89351-38.640042-38.409798-58.960857-10.959609-19.336394-25.2685-49.14121-25.2685-71.640644h2.046613c0 22.035876 14.205537 51.579749 25.007557 70.635757 11.642155 20.538779 32.985252 35.656081 38.609343 59.470463 5.252631 22.236444-5.107321 45.948495-21.965268 60.524469-19.425422 16.796548-50.898227 7.80271-68.420299 26.370601-5.212722 5.523807-8.961092 15.471366-7.751545 23.162535 0.38681 2.464121 4.91494 4.314259 6.17463 5.581112 3.967358 3.986801 6.500041 9.353019 8.538467 14.512529 8.211009 20.787442 3.540639 36.408211 0.25992 57.712423-3.875261 25.155936 4.433986 49.393967 2.211364 74.366731-2.805906 31.531134-32.558533 17.748223-27.081798-8.878204-10.354835-0.14224-7.79043-8.306176-7.79043-16.095584v-23.627116c0-7.081279-17.86488-4.347005-24.421203-4.347005H380.846426c-3.221368 0-1.506307 39.171138-1.50426 45.414329a932.221714 932.221714 0 0 1-8.792247-0.372483c2.518357 10.221806 0.470721 28.897144-13.766538 28.897143z" fill="" p-id="20128"></path><path d="M299.872207 602.450035l1.654686 0.48914c-0.621147 0.097214-1.336438-0.370437-1.654686-0.48914z" fill="#FFFFFF" p-id="20129"></path><path d="M301.352931 603.975784c-3.838422 0 0.409322-3.569292 4.835122-0.72757-1.459235 0.240477-3.359514 0.727571-4.835122 0.72757z" fill="" p-id="20130"></path><path d="M724.013183 606.77555c0 0.586354-3.668553 1.103124 0 0 0 0.155543-0.521886 0.156566 0 0z" fill="#FFFFFF" p-id="20131"></path><path d="M722.472084 608.446609c0.375553-0.855484-0.639566-2.784416 2.564405-1.666966-0.530073 1.121544-1.385557 1.677199-2.564405 1.666966z" fill="" p-id="20132"></path><path d="M564.260759 642.637316c-35.269271-0.836041-70.610174-0.819668-105.876376 0.195451-17.670451 0.508583-17.513886 0.569982-17.513885 17.151636 0 4.516874 3.756557 29.420053 0 33.31271-4.084015 4.231371-31.643698 0-37.09178 0-8.589632 0-18.060331 2.127454-26.486234-0.195452-3.578502-0.986467-8.361435-44.338834 3.263323-46.774303 30.400381-6.367011 63.986313-4.195555 94.845135-4.406356 29.571503-0.201591 59.305711-0.602727 88.859817 0.716314-3.640923-0.085958-8.248871-1.017166-11.862165-0.441045 3.614317-0.576121 8.29492 0.282433 11.862165 0.441045-29.189809-0.692778-18.512632-0.826831 0 0z" fill="#FFFFFF" p-id="20133"></path><path d="M387.044592 694.927239c-14.464433 0-12.94687-4.438079-12.94687-16.550954 0-6.129604-3.351328-24.362874 0-29.504988 0-3.25002 7.476275-3.741207 9.454326-4.060479 21.702278-3.502777 44.279483-3.25309 66.182328-3.628644 38.113039-0.653893 76.500325-1.263783 114.571409 0.432859l-0.069585 2.045589c-29.186739-0.692778-58.386782-0.64366-87.576591-0.195451-10.304693 0.156566-23.121604-1.444908-33.150005 1.159406-3.142573 0.815575-1.6158 16.278755-1.6158 19.70069 0 5.529947-0.26606 11.123338 0.232291 16.638959 1.171686 12.960173 0.00614 13.357216-12.061711 13.357216-14.326287 0.141216-28.704762 0.605797-43.019792 0.605797z m-10.900258-45.983287v39.669488c0 8.794293 26.938536 3.660366 34.449603 3.660366 6.485715 0 12.985756-0.130983 19.470447 0 11.573593 0 11.117199 0.962931 10.023285-11.125385-0.541329-5.987365-3.784186-34.32783 1.093914-37.726229-16.288988 0.370437-32.636305 0.802272-48.866964 2.321882-3.115967 0.290619-14.041808-0.028653-16.170285 3.199878z" fill="" p-id="20134"></path><path d="M440.870498 643.500986c0 10.165524-6.514367 48.38908 5.967922 50.255591 10.201339 1.524726 20.395516-0.748037 30.593785-0.433882 10.930957 0.338714 22.445198 1.707898 33.29736-0.092097 7.953136-1.318018 4.452405-42.937928 4.627391-51.049677-24.832572-0.00307-49.677423 0.105401-74.486458 1.320065 0 15.613606 24.802896-1.214664 0 0z" fill="#FFFFFF" p-id="20135"></path><path d="M455.311395 695.273117c-11.654434 0-15.464203-1.046842-15.464203-11.772115v-31.494295-9.16473c0-0.87595 19.365046-1.077541 21.323654-1.130753 18.406209-0.50756 36.81958-0.553609 55.231929-0.551562l-1.035586 47.851844c-0.232291 10.764158-50.382481 6.261611-60.055794 6.261611z m-13.417591-50.79692v39.303145c0 16.499789 22.162766 8.494465 34.256198 8.494464 11.239995 0 36.927027 7.987928 37.255509-7.203052l0.906649-41.865503c-24.142863-0.00614-48.298006 0.11768-72.418356 1.270946z" fill="" p-id="20136"></path><path d="M564.476677 642.637316a1984.213231 1984.213231 0 0 0-33.568537-0.421602c-3.303232-0.01535-11.153014-2.109034-13.961989 0.563841-3.936659 3.745301-1.938142 15.494902-2.03638 20.094664l-0.659009 30.417777h53.123918c16.140609 0 23.12365 3.575432 22.86373-13.901615-0.102331-6.885827 2.592035-31.780821-0.916882-35.021631-5.182023-4.789073-18.433838-1.594311-24.844851-1.731434-11.18883-0.240477 4.391007 0.094144 0 0z" fill="#FFFFFF" p-id="20137"></path><path d="M587.297428 694.314279h-74.090438c0.246617-11.402701 0.49221-22.804379 0.73985-34.206056 0.098237-4.546549-0.171915-9.43386 0.524956-13.947664 1.423419-9.228175 21.689998-4.948709 28.083615-4.885264 5.993504 0.058328 48.453548-3.246951 48.366568 5.02648-0.079818 7.496741 2.928702 48.012504-3.624551 48.012504z m-72.000847-2.046612h55.30049c2.584871 0 15.112186 1.841951 17.045212-0.189312 5.771447-6.086625 1.057075-29.315676 1.150196-38.114063 0.144286-13.656021-6.990205-10.892071-20.274766-10.403954-15.927761 0.589424-31.911804-0.797156-47.827285-0.797155-8.109702 0-5.248537 42.791595-5.393847 49.504484z" fill="" p-id="20138"></path><path d="M655.896806 646.324288c-21.770839-3.933589-44.00933-1.547239-65.973574-2.548032l-0.521886 49.520857h67.847247l-1.351787-46.972825c-21.246907-3.837398 0.450255 15.657608 0 0z" fill="#FFFFFF" p-id="20139"></path><path d="M658.301576 694.320419h-69.934793l0.543376-51.613518c9.764388 0.468674 67.815525-3.134387 68.056002 5.236258 0.446162 15.459087 0.8913 30.91715 1.335415 46.37726z m-67.865668-2.046613h65.759703l-1.163499-40.398082c-0.274246-9.518794-14.94027-6.506181-22.675442-6.735401-13.804401-0.407276-27.619034 0.268106-41.421388-0.295736l-0.499374 47.429219z" fill="" p-id="20140"></path><path d="M615.130334 370.09199c-13.097296-0.87288-27.327392-2.917446-39.141462 3.837398l-77.529771-202.798823c6.713912-0.170892 40.770566-3.602038 42.944068 2.199085l6.348591 16.943905c8.563026 22.853497 17.125029 45.705971 25.689079 68.558445l41.689495 111.25999zM706.058253 611.57281c-11.890818 2.179642-26.166963 4.157693-33.798781 14.731516a2489219.358235 2489219.358235 0 0 1-44.25697-114.967428c-0.463558-1.204431 28.414143-19.162432 32.406061-22.286586 15.582907 40.695864 30.440289 81.684394 45.64969 122.522498z" fill="#940005" p-id="20141"></path><path d="M671.236166 626.340141c2.168386-0.047072 2.307555-0.050142 0 0z" fill="" p-id="20142"></path><path d="M375.121028 392.348899c-15.386432 14.690584-28.819372 35.137265-28.880771 57.120952-0.060375 21.60711 15.002692 37.423331 31.637558 49.144281 31.061436 21.886473 71.472821 23.794939 84.48416-17.784039 8.346085-26.673499 17.006326-74.758658-1.006934-99.416244-20.589944-28.184923-68.093864-6.395664-87.574544 12.214183 0.469698-0.448208 3.708462-3.5345 1.340531-1.279133-25.219381 24.079418 3.616364-3.444449 0 0z" fill="#000000" p-id="20143"></path><path d="M651.815861 391.998929c14.553461 13.898545 27.133987 32.679283 28.724205 53.244668 1.699712 21.978571-11.923564 38.410821-28.535917 50.89311-29.303396 22.019503-72.068386 28.820396-86.343507-12.854772-9.262968-27.04189-17.188474-73.240071-1.706875-99.479689 19.945261-33.831526 66.801429-7.190773 88.397283 9.475815-0.268106-0.207731-3.0208-3.654226-0.535189-1.279132 25.219381 24.082488-3.609201-3.448542 0 0z" fill="#040000" p-id="20144"></path><path d="M516.020058 492.289076c-20.072151-0.224104-39.095413 37.851073-35.770691 54.951543 2.224668 11.44261 18.020422 7.283894 20.801768-1.740644 2.493797-8.092305 3.110851-25.801642 15.8592-23.110347 10.293437 2.173502 11.746532 16.287965 13.478989 24.616654 2.068102 9.94142 20.268626 9.349949 22.179139-0.557702 3.329838-17.269315-16.95823-53.937446-36.548405-54.159504-17.687848-0.197498 17.436114 0.198521 0 0z" fill="#060001" p-id="20145"></path><path d="M652.925125 789.169647v-43.768853c0-0.477884-17.571191-0.223081-18.808368-0.22308h-232.280274c-2.813069 0-18.281365-2.133593-20.373003 0-2.410909 2.460028 0 19.268856 0 22.688745v22.688745a907.405515 907.405515 0 0 1-9.135055-0.40216c2.284019 7.625678 2.091638 18.317181-3.440355 24.593118-5.434779 6.164397-15.722076 5.399987-19.116383-2.289136-8.004301-18.134009 1.61887-47.559179 4.301979-65.574484 3.221368-21.627577-6.351662-37.664831-7.499811-58.716287-0.538259-9.878998 6.571672-15.490809 9.377578-24.48567 3.554966-11.395538 9.380648-15.437597 21.293979-17.225314v43.084261c0 5.622044 6.579859 3.174296 11.504008 3.174296h270.620487l-1.348717-46.965661c20.313651 3.530406 32.079626 28.588105 31.547506 48.26833-0.281409 10.42442-4.373611 20.815071-6.297426 31.000038-2.28095 12.07399-1.26583 24.316825-0.146333 36.480866 1.37737 14.963807 5.127787 30.985712 1.309832 45.861514-1.983167 7.725962-7.970532 13.43294-16.238846 9.067516-9.020444-4.76042-9.337669-18.582217-7.224542-27.16571-2.680039-0.029676-5.363148-0.059352-8.046256-0.091074z" fill="#000000" p-id="20146"></path><path d="M708.363761 658.712433c-12.974499 34.574447-1.218758 79.190597 0.662079 115.004267 1.445932 27.51568 4.806469 57.582463-5.851264 83.785242-12.660344 31.123858-42.700521 32.647561-71.923077 28.368094-42.11826-6.167466-84.396155-11.827373-127.07314-10.831696-42.620703 0.995677-84.600817 10.359952-127.258359 10.54517-13.406335 0.059352-29.729092 0.651846-41.877783-6.065135-16.714683-9.240455-13.648858-32.373315-14.538111-48.459689-2.291183-41.234123 7.252171-81.864496 8.395204-122.964566 0.567935-20.436448-0.76748-41.211611-6.423293-60.945047-4.406356-15.374152-20.256346-27.945469-20.390399-44.274366 20.61348 6.834662 51.863205 4.89345 61.804624 28.703739 1.77646 4.253884 3.716648 9.28548 2.981915 13.995759-0.905626 5.807263-8.461719 8.585539-10.561544 14.600533-5.51869 15.803941-12.8077 23.220864-8.652054 40.928154 4.618181 19.674085 7.495718 34.142611 4.397147 54.450123-2.317789 15.189957-5.765307 30.752398-5.372357 46.198182 0.245593 9.655917 5.51562 22.4892 17.657148 16.267498 9.145287-4.685719 9.621125-18.809391 7.061836-27.358091 3.042289 0.148379 6.085602 0.280386 9.129938 0.39909 0-12.736069-0.803295-25.323758-1.059122-38.016849-0.236384-11.689227 9.576099-8.487302 18.648732-7.68196 36.71418 3.258207 74.960249 0.323365 111.829972 0.323365h120.883161c5.440919 0 12.155854-1.37123 17.563004-0.51677 6.726192 1.062192 3.597945 16.671705 3.597945 21.372774 0 9.915837-4.78498 23.080671 8.045233 23.22905-1.889023 7.66661-1.720178 18.030655 3.715625 24.328082 7.65433 8.870018 17.620309 2.914376 19.883863-6.585999 7.150864-30.002314-7.239891-60.529585 0.835017-91.091648 3.988848-15.099906 5.448082-27.77867-0.118703-42.71587-2.316765-6.214539-4.92108-13.762445-9.3039-18.872836-3.348258-3.904936-8.433066-5.186116-7.543813-11.140735 4.795213-32.095999 33.904181-29.089525 58.718333-36.491099 0 20.295232-13.175067 38.669718-19.98824 57.167001 1.232061-3.346211 2.515287-6.67298 3.75451-10.015098-0.538259 1.455141-1.086751 2.907213-1.630127 4.361331-6.106068 16.270569 6.042623-16.146749 0 0z" fill="#FFFFFF" p-id="20147"></path><path d="M655.333988 889.030006c-25.812899 0-51.949162-6.54302-77.592193-9.32232-26.944676-2.920516-54.094012-4.53427-81.196277-3.39533-26.948769 1.130753-53.630455 5.316076-80.441077 7.988952-23.9996 2.39249-55.467289 7.303336-78.545914-2.416026-21.3871-9.007141-17.844413-38.293141-18.342763-57.372686-0.740874-28.308743 3.577478-56.381102 6.418176-84.46574 2.645247-26.158776 3.934612-52.824089-0.907672-78.818113-2.381234-12.782118-6.080485-23.892153-13.535271-34.633798-5.281283-7.610328-10.376325-15.494902-10.138918-25.139564 21.085224 7.062859 53.582359 5.297656 63.784722 29.730115 1.974981 4.729721 4.40431 11.056823 2.625803 16.252149-1.769296 5.17179-7.951089 6.90527-10.007934 12.576433-4.669346 12.875239-12.854772 21.48022-9.885138 36.013215 2.777253 13.592576 9.18008 27.067472 7.865131 41.210588-1.721201 18.49319-5.939269 36.663014-7.380084 55.18895-0.719384 9.246595-1.385557 29.29521 13.533224 25.538652 11.426237-2.877537 11.283997-19.647479 8.42181-28.395723 3.166109 0.156566 6.333242 0.300852 9.501399 0.426718 0-8.207939-4.627391-45.064358 3.284812-46.151109 9.902534-1.358951 21.351284 0.816598 31.574113 0.816598h212.894762c6.840802 0 25.755594-3.170203 25.755593 4.77577v24.870434c0 7.04137-2.793626 17.084097 8.324596 14.4542-2.187829 8.115841-2.535753 21.116947 5.294586 26.581402 7.598049 5.301749 14.117532-0.229221 15.9646-7.902994 3.568269-14.827707 0.321318-31.030737-1.393743-45.892213-2.112104-18.298761-0.531096-33.877575 3.917217-51.667753 3.693112-14.774495 2.073218-27.319206-3.925403-41.265846-3.933589-9.144264-16.129352-17.342993-14.346753-27.14422 5.665023-31.29475 35.983539-28.231995 60.396555-35.641755 0.382717 21.540595-14.012132 38.575574-19.645432 58.477856-9.046027 31.954783 0.076748 70.104661 2.059915 102.627379 2.736321 44.898583 10.128685 122.095779-54.332442 122.095779z m-140.994198-15.132652c45.605687 0 89.598644 10.343579 134.802172 12.901844 43.265386 2.449795 58.733683-29.769001 60.177567-68.328201 1.520633-40.603767-5.300726-81.104179-6.697539-121.607662-0.48607-14.068414 0.571005-27.570939 5.580089-40.637536 5.851265-15.653515 16.422018-30.248931 16.981766-47.662533-23.084765 6.350638-51.022047 4.181229-56.31561 33.270755-1.312902 7.233752 2.623757 7.291057 6.930853 12.288884 4.418636 5.127787 7.05672 12.68695 9.398044 18.929118 5.535063 14.750959 4.567016 27.423583 0.600681 42.381249-7.877411 29.705556 3.115967 57.617256-0.276293 87.339184-0.847298 7.42818-3.412726 16.142655-12.196786 16.629749-14.329357-0.154519-16.780175-17.721617-14.555508-28.631084-17.625426-0.441045-1.63115-32.311917-7.795546-41.827641 0-3.653203-22.288632-2.235924-26.92421-2.235924H414.369937c-9.295714 0-18.539238-1.023306-27.807322-1.023306-11.017938 0-5.006014 15.721053-5.006014 23.24133v23.197329a933.521313 933.521313 0 0 1-8.798387-0.372484c2.620687 10.776438-0.021489 28.635177-14.32117 28.635178-12.69002 0-13.192464-15.431457-12.666484-24.653493 0.87288-15.325034 3.895727-30.414707 6.049786-45.583175 2.293229-16.146749 0.382717-28.378327-3.89982-43.927465-4.304026-15.627932-3.456728-24.182772 4.26514-38.122249 2.213411-3.993964 2.792603-8.569166 5.02034-12.549827 2.252297-4.025687 7.958252-5.456269 8.667404-10.220783 4.90573-32.972972-42.791595-34.914184-62.709227-41.036625 1.137916 16.607236 17.114796 29.998221 21.313421 46.320978 4.807493 18.690688 5.980201 38.204114 5.446036 57.434084-1.186012 42.726104-9.533121 84.472903-8.214079 127.361713 0.465604 15.137769-1.067308 35.821857 14.902408 43.764759 15.193027 7.557116 36.126802 5.792936 52.473095 5.089925 41.920762-1.807159 83.200934-10.366092 125.254726-10.366091z" fill="" p-id="20148"></path><path d="M586.352917 746.352469h-66.224284c-10.102079 0-5.016247 41.312918-5.059226 48.441269 16.892739 0 33.782408 0.232291 50.669006-0.401136 6.314823-0.23536 14.554484 0.403183 20.531616-2.088568 3.868097-1.610684 0.180102-40.455387 0.082888-45.951565-22.074761 0 0.265036 15.053857 0 0z" fill="#FFFFFF" p-id="20149"></path><path d="M533.298584 795.894815c-6.4192 0-12.839423-0.062422-19.258623-0.076748 0.085958-14.567787-1.297552-29.909194-0.493234-44.414559 0.467651-8.44023 12.749372-6.073322 18.37551-6.073322h34.948976c2.971681 0 18.304901-2.163269 20.487614 0 2.533706 2.511193 3.066849 44.506656 0.348947 47.266513-1.654686 1.686409-5.348821 1.661849-7.458879 1.89414-15.522532 1.704828-31.366382 1.403976-46.950311 1.403976z m-17.200754-2.12029c21.660322 0.104377 47.698349 3.605108 68.979024-2.125407 3.616364-0.974188 0.384763-37.718043 0.291642-43.043329-0.048095-2.711761-42.4713-1.228991-47.323818-1.22899-3.802606 0-18.288528-2.440585-21.505803 1.147126-4.498454 5.019317-0.402159 39.005362-0.441045 45.2506 0.623193 0.00307 0.046049-7.543813 0 0z" fill="" p-id="20150"></path><path d="M586.352917 746.352469l0.828878 47.032176c20.207227-0.808412 40.413432-1.685385 60.603263-2.863211 5.738701-0.335644 3.930519-19.334347 3.820002-22.602787-0.119727-3.580548 1.026376-21.566178-3.251044-21.566178h-62.001099z" fill="#FFFFFF" p-id="20151"></path><path d="M586.176908 794.448884c-0.288572-16.372899-0.576121-32.746822-0.865717-49.119721h62.122873c8.583492 0 5.943362 34.437323 4.284583 41.213657-2.792603 11.411911-54.327326 7.459902-65.541739 7.906064z m1.216711-47.073109l0.791016 44.944632c10.223852-0.410346 60.157101 2.77316 61.84658-7.312546 0.728594-4.351098 1.657756-37.632085-1.678222-37.632086-4.739954-3.264347-23.146163 0-28.78765 0h-32.171724z" fill="" p-id="20152"></path><path d="M379.348306 746.352469c0 10.980076-7.012717 46.027289 7.777127 47.107901 19.221784 1.402953 39.057551 0.312108 58.373479 0.871857 0-14.167674 2.083451-28.64234-0.020466-42.744523-1.692548-11.351536-55.082526-5.235235-66.13014-5.235235 0 14.248516 21.252023 0 0 0z" fill="#FFFFFF" p-id="20153"></path><path d="M446.523241 795.386232c-16.2061-0.468674-32.800034-1.936095-48.986691-1.046842-7.389294 0.405229-19.210527 2.170432-19.210527-7.900947 0-5.720282-2.240017-41.108257 1.936095-41.108257h53.342906c5.700839 0 11.396561-1.906419 12.706393 5.083785 2.731204 14.57802 0.459464 30.256094 0.211824 44.972261z m-44.568055-3.272533c6.357801 0 42.433438 3.647063 42.61354-1.452072 0.462534-13.125949 3.091408-28.924773-0.669242-41.70689-1.406023-4.777817-34.001395-1.581008-38.845726-1.581008l-22.675442 0.002046c-4.231371 0-2.004657 9.453303-2.004657 12.815887v26.112728c-0.002047 9.795087 14.934131 5.809309 21.581527 5.809309z" fill="" p-id="20154"></path><path d="M445.499935 746.352469c0 13.225209 0.649799 26.622334-0.408299 39.806611-0.575098 7.15905-1.424442 8.148587 6.517437 8.332783 8.145517 0.190335 16.294105 0.286526 24.441669 0.338714 8.671497 0.056282 17.34197 0.060375 26.013466 0.029676 6.743588-0.022513 14.007015 3.149736 13.499456-5.463432-0.841158-14.304797-0.276293-28.711925-0.184195-43.044352h-69.879534z" fill="#FFFFFF" p-id="20155"></path><path d="M491.658208 795.901978c-12.292977 0-24.585955-0.065492-36.876886-0.317224-13.504572-0.275269-10.304693-1.3743-10.304693-14.519692 0.127913-6.435573-4.02978-31.527041 0-35.735899 3.574409-3.733021 30.80561 0 35.967166 0h35.966143l-0.211824 33.035394c-0.031722 4.91801 0.982374 10.278087 0.35611 15.086603-0.753153 5.762237-20.352537 2.450818-24.896016 2.450818z m-45.553499-2.575661c13.447267 0.38681 26.901697 0.49835 40.353057 0.524956 7.29822 0.014326 14.597463-0.00307 21.895682-0.039909 9.393951-0.048095 5.721305-2.691295 5.763261-10.080589-0.155543-12.110829 0.154519-24.242124 0.233314-36.353976h-60.773132c-9.67229 0-7.05365 2.000564-7.05365 11.859095 0 9.009188-3.114944 25.457812-0.418532 34.090423 8.851599 0.254803-0.500397-1.600451 0 0z" fill="" p-id="20156"></path></svg>